<svg width="46" height="46" fill="none" xmlns="http://www.w3.org/2000/svg"><defs><linearGradient id="paint0_linear" x1="23" y1="1" x2="23" y2="45" gradientUnits="userSpaceOnUse"><stop offset=".531" stop-color="#FBAAAA"/><stop offset="1" stop-color="#C4C4C4" stop-opacity="0"/></linearGradient><linearGradient id="paint1_linear" x1="23" y1="1" x2="23" y2="45" gradientUnits="userSpaceOnUse"><stop offset=".677" stop-color="#EEB0B0"/><stop offset="1" stop-color="#BEBEBE" stop-opacity="0"/></linearGradient></defs><circle cx="23" cy="23" r="22.5" fill="url(#paint0_linear)" stroke="url(#paint1_linear)"/><path d="M12.368 9.668h22.264v27.706H12.368V9.668z" fill="#F45858"/><path d="M15.047 12.21h16.907v22.5H15.047v-22.5z" fill="#DFEEF4"/><path d="M28.007 12.21V8.755a1.128 1.128 0 00-1.13-1.13h-6.754a1.129 1.129 0 00-1.13 1.13v3.454l9.014.001z" fill="#3EA2E5"/><path d="M17.739 21.433h4.054v4.055H17.74v-4.055zM17.739 28.072h4.054v4.054H17.74v-4.054zM17.739 14.794h4.054v4.055H17.74v-4.055z" fill="#F2DA30"/><path d="M29.261 17.273h-5.335a.451.451 0 010-.902h5.335a.451.451 0 110 .902zM29.261 23.912h-5.335a.451.451 0 110-.903h5.335a.451.451 0 110 .902zM29.261 30.55h-5.335a.451.451 0 110-.902h5.335a.451.451 0 110 .902zM19.769 17.765a.45.45 0 01-.319-.132l-.679-.679a.451.451 0 11.638-.638l.36.36 2.746-2.745a.451.451 0 01.638.637l-3.065 3.065a.45.45 0 01-.32.132zM19.769 24.404a.449.449 0 01-.319-.132l-.679-.68a.451.451 0 01.638-.637l.36.36 2.746-2.746a.45.45 0 01.638.638l-3.065 3.065a.45.45 0 01-.32.132zM19.769 31.043a.449.449 0 01-.319-.133l-.679-.678a.451.451 0 01.638-.638l.36.36 2.746-2.746a.45.45 0 01.742.142.45.45 0 01-.104.496l-3.065 3.064a.45.45 0 01-.32.133z" fill="#6D7A84"/></svg>