<svg width="46" height="46" fill="none" xmlns="http://www.w3.org/2000/svg"><defs><linearGradient id="paint0_linear" x1="23" y1="1" x2="23" y2="45" gradientUnits="userSpaceOnUse"><stop offset=".469" stop-color="#F4D482"/><stop offset="1" stop-color="#C4C4C4" stop-opacity="0"/></linearGradient><linearGradient id="paint1_linear" x1="23" y1="1" x2="23" y2="45" gradientUnits="userSpaceOnUse"><stop offset=".536" stop-color="#F5D583"/><stop offset="1" stop-color="#F5D583" stop-opacity="0"/></linearGradient></defs><circle cx="23" cy="23" r="22.5" fill="url(#paint0_linear)" stroke="url(#paint1_linear)"/><path d="M22.5 9.906c3.5 0 6.708 1.459 9.042 3.719l3.354-3.354C31.76 7.135 27.386 5.167 22.5 5.167c-4.813 0-9.188 1.968-12.396 5.104l3.354 3.354C15.792 11.292 19 9.906 22.5 9.906z" fill="#F8B64C"/><path d="M13.458 13.625l-3.354-3.354C6.97 13.479 5 17.854 5 22.667c0 4.812 1.969 9.187 5.104 12.395l3.354-3.354c-2.333-2.333-3.718-5.541-3.718-9.041s1.385-6.709 3.718-9.042z" fill="#54C0EB"/><path d="M34.896 10.27l-3.354 3.355c2.333 2.333 3.718 5.542 3.718 9.042s-1.458 6.708-3.718 9.041l3.354 3.355C38.03 31.927 40 27.553 40 22.667c0-4.813-1.969-9.188-5.104-12.396z" fill="#F1543F"/><path d="M31.542 13.625l-3.209 3.208c-1.53-1.458-3.573-2.406-5.833-2.406-2.26 0-4.375.948-5.833 2.406l-3.209-3.208C15.792 11.292 19 9.906 22.5 9.906s6.708 1.386 9.042 3.719z" fill="#FFD15C"/><path d="M16.667 28.5l-3.209 3.208c-2.333-2.333-3.718-5.541-3.718-9.041s1.458-6.709 3.718-9.042l3.209 3.208a8.332 8.332 0 00-2.407 5.834c-.072 2.26.875 4.375 2.407 5.833z" fill="#84DBFF"/><path d="M35.26 22.667c0 3.5-1.458 6.708-3.718 9.041L28.333 28.5c1.459-1.531 2.407-3.573 2.407-5.833 0-2.26-.948-4.375-2.407-5.834l3.209-3.208c2.333 2.333 3.718 5.542 3.718 9.042z" fill="#FF7058"/><path d="M33.73 15.74l-9.48 7.218c-.146.875-.875 1.459-1.75 1.459a1.805 1.805 0 01-1.823-1.823c0-1.021.802-1.823 1.823-1.823.219 0 .365 0 .583.073L33.73 15.74z" fill="#40596B"/><path d="M28.77 37.833H16.23a2.77 2.77 0 01-2.772-2.77 2.77 2.77 0 012.771-2.771h12.469a2.77 2.77 0 012.77 2.77c.074 1.532-1.166 2.771-2.697 2.771z" fill="#CDD6E0"/><path d="M22.5 23.396a.73.73 0 100-1.458.73.73 0 000 1.458z" fill="#fff"/></svg>