<svg width="46" height="46" fill="none" xmlns="http://www.w3.org/2000/svg"><defs><linearGradient id="paint0_linear" x1="23" y1="1" x2="23" y2="45" gradientUnits="userSpaceOnUse"><stop offset=".536" stop-color="#82CAA4"/><stop offset="1" stop-color="#82CAA4" stop-opacity="0"/></linearGradient><linearGradient id="paint1_linear" x1="23" y1="1" x2="23" y2="45" gradientUnits="userSpaceOnUse"><stop offset=".484" stop-color="#82CAA4"/><stop offset="1" stop-color="#BEBEBE" stop-opacity="0"/></linearGradient><clipPath id="clip0"><path fill="#fff" transform="translate(6 5)" d="M0 0h34v34H0z"/></clipPath></defs><circle cx="23" cy="23" r="22.5" fill="url(#paint0_linear)" stroke="url(#paint1_linear)"/><g clip-path="url(#clip0)"><path d="M32.806 38.502H13.194a.743.743 0 01-.743-.743V19.475c0-.41.333-.743.743-.743h19.612c.41 0 .743.333.743.743V37.76c0 .41-.333.743-.743.743z" fill="#FFD064"/><path d="M31.306 18.732c.404 0 .731.327.731.731v19.039h.769c.41 0 .743-.333.743-.743V19.475a.743.743 0 00-.743-.743h-1.5z" fill="#FFC250"/><path d="M26.644 35.428l-.367-.377 2.235-2.175-2.235-2.176.367-.377a1.317 1.317 0 011.862-.025l1.96 1.907a.923.923 0 01.01 1.331l-1.97 1.917a1.317 1.317 0 01-1.862-.025z" fill="#F9F6F6"/><path d="M24.3 22.202h-2.6a.436.436 0 01-.435-.435v-3.035h3.47v3.035c0 .24-.195.435-.435.435z" fill="#26457D"/><path d="M23.47 18.732v3.035c0 .24-.195.435-.436.435H24.3c.24 0 .435-.195.435-.435v-3.035H23.47z" fill="#21386B"/><path d="M26.819 9.276L23 5.498l-3.819 3.778h1.683c.22 0 .398.178.398.398v6.26h3.476v-6.26c0-.22.178-.398.398-.398h1.683z" fill="#95D6A4"/><path d="M23.36 9.674v6.26h1.378v-6.26c0-.22.178-.398.398-.398h-1.378a.398.398 0 00-.398.398zM23 5.498l-.69.682 3.13 3.096h1.379L23 5.498z" fill="#78C2A4"/><path d="M16.534 34.665a.498.498 0 00.498-.498v-2.584l.524.518a.498.498 0 00.7-.709l-1.372-1.355a.498.498 0 00-.7 0l-1.371 1.355a.498.498 0 00.7.709l.523-.518v2.584c0 .275.223.498.498.498zM20.93 34.665a.498.498 0 00.498-.498v-2.584l.524.518a.498.498 0 00.7-.709l-1.372-1.355a.498.498 0 00-.7 0l-1.372 1.355a.498.498 0 10.7.709l.524-.518v2.584c0 .275.223.498.498.498zM25.92 35.398l.367.377a1.81 1.81 0 001.301.549c.457 0 .914-.171 1.266-.514l1.97-1.917c.4-.39.534-.981.342-1.508a1.431 1.431 0 00-.354-.537l-.687-.67-.002-.001-1.27-1.236a1.817 1.817 0 00-2.566.035l-.366.377a.498.498 0 00.01.704l1.867 1.819-1.868 1.818a.498.498 0 00-.01.704zm2.94-2.166a.498.498 0 000-.713l-1.878-1.828.019-.02a.817.817 0 011.158-.016l1.318 1.283.64.624a.424.424 0 01.011.618l-1.969 1.916a.82.82 0 01-1.158-.015l-.02-.02 1.879-1.828zM16.012 12.949l.626-.5v4.363a.498.498 0 10.996 0v-4.363l.625.5a.498.498 0 00.622-.778l-1.434-1.146a.498.498 0 00-.622 0L15.39 12.17a.498.498 0 10.621.778zM27.041 12.87c.172.215.485.25.7.079l.625-.5v4.363a.498.498 0 10.996 0v-4.363l.626.5a.498.498 0 00.621-.778l-1.434-1.146a.498.498 0 00-.622 0L27.12 12.17a.498.498 0 00-.078.7zM22.082 7.107L23 6.2l2.607 2.58h-.471a.897.897 0 00-.896.895v6.26a.498.498 0 10.996 0v-6.16h1.583a.498.498 0 00.35-.852L23.35 5.144a.498.498 0 00-.7 0L21.38 6.399a.498.498 0 10.7.708zM19.181 9.774h1.583v6.16a.498.498 0 10.996 0v-6.26a.897.897 0 00-.896-.896h-.471l.273-.27a.498.498 0 10-.7-.708L18.83 8.922a.498.498 0 00.35.852z" fill="#000"/><path d="M33.549 33.67a.498.498 0 00.498-.498V19.475c0-.684-.557-1.241-1.241-1.241H13.194c-.684 0-1.241.557-1.241 1.241V37.76c0 .684.557 1.24 1.241 1.24h19.612c.684 0 1.241-.556 1.241-1.24v-2.596a.498.498 0 10-.996 0v2.596c0 .135-.11.245-.245.245H13.194a.246.246 0 01-.245-.245V19.475c0-.135.11-.245.245-.245h7.573v2.537c0 .515.419.933.933.933h2.6a.935.935 0 00.933-.933V19.23h7.573c.135 0 .245.11.245.245v13.697c0 .275.223.498.498.498zm-9.312-11.966h-2.474V19.23h2.474v2.474z" fill="#000"/></g></svg>