<svg width="44" height="44" fill="none" xmlns="http://www.w3.org/2000/svg"><defs><linearGradient id="paint0_linear" x1="22" y1="0" x2="22" y2="44" gradientUnits="userSpaceOnUse"><stop offset=".141" stop-color="#CCE4F2"/><stop offset="1" stop-color="#269ADB" stop-opacity="0"/></linearGradient><linearGradient id="paint1_linear" x1="22.5" y1="36.547" x2="22.5" y2="8.453" gradientUnits="userSpaceOnUse"><stop stop-color="#9F2FFF"/><stop offset="1" stop-color="#0BB1D3"/></linearGradient></defs><circle cx="22" cy="22" r="22" fill="url(#paint0_linear)"/><path d="M11.172 17.516h1.812v.906h-1.812v-.906zm25.375-7.703v4.53c0 .75-.61 1.36-1.36 1.36h-1.359v.906h.906v.907H32.47v5.437h-2.133c.137.284.235.587.282.906h2.757v4.532h3.172v8.156h-7.25V28.39h3.172v-3.625H30.62a3.174 3.174 0 01-3.136 2.718h-9.968a3.176 3.176 0 01-3.172-3.172h-.906v4.079h2.718c.75 0 1.36.61 1.36 1.359v4.078h.906v1.36c0 .749-.61 1.359-1.36 1.359h-7.25c-.749 0-1.359-.61-1.359-1.36v-1.359h.906V29.75c0-.75.61-1.36 1.36-1.36h1.812v-4.984h1.955c.099-.327.248-.631.44-.906h-3.301v-2.266H9.812c-.749 0-1.359-.61-1.359-1.359V9.812c0-.749.61-1.359 1.36-1.359h4.53c.75 0 1.36.61 1.36 1.36v9.062c0 .75-.61 1.36-1.36 1.36h-1.812v1.359h3.36a3.14 3.14 0 01.956-.38 3.644 3.644 0 013.387-2.339c.51 0 1.014.109 1.478.318a3.64 3.64 0 013.054-1.677 3.63 3.63 0 013.622 3.76c.498.148.943.418 1.304.77h1.87v-4.53h-2.265v-.907h.906v-.906h-1.36c-.749 0-1.359-.61-1.359-1.36v-4.53c0-.75.61-1.36 1.36-1.36h6.343c.75 0 1.36.61 1.36 1.36zm-21.75 1.359H9.359v4.531h5.438v-4.531zm-5.438-1.36v.454h5.438v-.454a.453.453 0 00-.453-.453H9.813a.453.453 0 00-.454.454zm.454 9.516h4.53c.25 0 .454-.203.454-.453v-2.266H9.359v2.266c0 .25.203.453.454.453zm7.703 15.406H9.359v.453c0 .25.203.454.454.454h7.25c.25 0 .453-.203.453-.453v-.454zm-1.36-5.437H10.72a.453.453 0 00-.453.453v4.078h6.343V29.75a.453.453 0 00-.453-.453zm19.485 6.344v-2.72h-5.438v2.72h5.438zm0-6.344h-5.438v2.719h5.438v-2.72zm-5.891-4.985c0-1.107-.826-2.069-1.922-2.236l-.448-.068.069-.448c.024-.161.035-.294.035-.42 0-1.499-1.219-2.718-2.718-2.718a2.729 2.729 0 00-2.462 1.57l-.215.462-.433-.267a2.708 2.708 0 00-1.422-.406c-1.2 0-2.274.806-2.61 1.96l-.083.288-.297.036a2.264 2.264 0 00.272 4.513h9.968a2.268 2.268 0 002.266-2.265zm-1.36-14.5v3.172h7.25V9.813a.453.453 0 00-.453-.454h-6.343a.453.453 0 00-.453.454zm4.532 5.891h-1.813v.906h1.813v-.906zm2.719-1.36v-.452h-7.25v.453c0 .25.203.453.453.453h6.343c.25 0 .454-.203.454-.453zm-3.625 15.86h-.907v.906h.907v-.906zm1.812 4.531h.906v-.906h-.906v.906zm.906-4.53h-1.812v.905h1.812v-.906zm-3.625 4.53h1.813v-.906h-1.813v.906z" fill="url(#paint1_linear)"/></svg>