<svg width="46" height="46" fill="none" xmlns="http://www.w3.org/2000/svg"><defs><linearGradient id="paint0_linear" x1="23" y1="1" x2="23" y2="45" gradientUnits="userSpaceOnUse"><stop offset=".328" stop-color="#BEB3FF"/><stop offset="1" stop-color="#C4C4C4" stop-opacity="0"/></linearGradient><linearGradient id="paint1_linear" x1="23" y1="1" x2="23" y2="45" gradientUnits="userSpaceOnUse"><stop stop-color="#BEB3FF"/><stop offset="1" stop-color="#BEBEBE" stop-opacity="0"/></linearGradient><linearGradient id="paint2_linear" x1="23.706" y1="10.226" x2="23.706" y2="30.226" gradientUnits="userSpaceOnUse"><stop offset="0" stop-color="#A8ABFF"/><stop offset="1" stop-color="#FAC8FF"/></linearGradient><linearGradient id="paint3_linear" x1="32.415" y1="6.484" x2="32.415" y2="19.581" gradientUnits="userSpaceOnUse"><stop offset="0" stop-color="#96D1F3"/><stop offset="1" stop-color="#CCFFF4"/></linearGradient><linearGradient id="paint4_linear" x1="23.499" y1="6" x2="23.499" y2="39" gradientUnits="userSpaceOnUse"><stop offset="0" stop-color="#174FA3"/><stop offset="1" stop-color="#B044AF"/></linearGradient><clipPath id="clip0"><path fill="#fff" transform="translate(7 6)" d="M0 0h33v33H0z"/></clipPath></defs><circle cx="23" cy="23" r="22.5" fill="url(#paint0_linear)" stroke="url(#paint1_linear)"/><g clip-path="url(#clip0)"><path d="M16.093 39v-4.452h-.905a3.87 3.87 0 01-3.857-3.533l-.391-4.467-2.444-.55a1.29 1.29 0 01-.886-1.805l2.942-6.295c0-6.304 5.415-11.414 12.093-11.414 6.679 0 12.093 5.11 12.093 11.414v2.056c0 3.502-1.209 6.908-3.443 9.704l-3.073 3.792V39h-12.13z" fill="#fff"/><path d="M33.706 21.544v-2.637l-2.208-.785-.795-1.919 1.006-2.116-1.865-1.865-2.116 1.006-1.919-.795-.785-2.207h-2.637l-.785 2.207-1.92.795-2.115-1.006-1.865 1.865 1.006 2.116-.795 1.92-2.207.784v2.637l2.207.785.795 1.92-1.006 2.116 1.865 1.864 2.116-1.005 1.919.795.785 2.207h2.637l.785-2.207 1.92-.795 2.115 1.005 1.865-1.864-1.006-2.116.795-1.92 2.207-.785zm-10 3.52a4.839 4.839 0 110-9.677 4.839 4.839 0 010 9.678z" fill="url(#paint2_linear)"/><path d="M34.996 25.452a2.58 2.58 0 01-5.162 0h5.162zM28.544 24.161c0 .713.578 1.29 1.29 1.29h5.162a1.29 1.29 0 001.29-1.29v-4.58h-7.742v4.58z" fill="#fff"/><path d="M32.415 6.484a7.097 7.097 0 00-3.87 13.045v.052h7.741v-.052a7.097 7.097 0 00-3.87-13.045z" fill="url(#paint3_linear)"/><path d="M32.522 6a7.52 7.52 0 00-4.274 1.245A13.206 13.206 0 0022.644 6C15.748 6 10.131 11.28 10.07 17.79L7.17 23.988a1.767 1.767 0 00.015 1.533c.238.485.677.83 1.203.948l2.099.474.36 4.115a4.346 4.346 0 001.397 2.83 4.344 4.344 0 002.942 1.144h.421V39h.968v-3.968h5.71v-.967h-7.1a3.369 3.369 0 01-3.373-3.092l-.423-4.819-2.789-.628a.802.802 0 01-.546-.432.803.803 0 01-.007-.697l2.988-6.392v-.107c0-6.027 5.207-10.93 11.608-10.93 1.632 0 3.253.327 4.733.948a7.59 7.59 0 00-1.808 2.399l-.204-.573h-3.32l-.827 2.326-.394.164-1.129.467-2.23-1.06-2.347 2.347 1.06 2.23-.63 1.523-2.327.827v3.32l2.326.827.63 1.523-1.059 2.23 2.347 2.347 2.23-1.06 1.523.63.827 2.327h3.32l.827-2.326 1.523-.63 2.23 1.059.796-.796c.266.174.56.308.875.393-.22.323-.454.64-.697.944l-3.182 3.924V39h.968v-5.379l2.968-3.66c.373-.468.723-.957 1.042-1.46a3.07 3.07 0 002.734-2.624 1.777 1.777 0 001.32-1.715v-4.376a7.564 7.564 0 003.226-6.172c.018-4.14-3.334-7.556-7.473-7.613zM28.06 19.787v.44a4.36 4.36 0 01-4.355 4.355 4.36 4.36 0 01-4.355-4.355 4.36 4.36 0 015.938-4.058 7.566 7.566 0 002.772 3.618zm1.683 7.86l-2.001-.951-2.318.959-.742 2.088h-1.954l-.743-2.088-2.317-.96-2.001.951-1.382-1.381.951-2.001-.96-2.318-2.087-.742v-1.954l2.088-.742.959-2.318-.95-2.001 1.38-1.382 2.002.951.198-.082c.544-.225.896-.37 1.328-.55l.791-.327.743-2.088h1.954l.372 1.046a7.635 7.635 0 00-.075 3.302 5.329 5.329 0 00-6.596 5.168 5.329 5.329 0 005.322 5.322c1.799 0 3.39-.897 4.355-2.268v.881c0 .822.56 1.514 1.32 1.715a3.05 3.05 0 00.643 1.489l-.28.28zm2.671-.098a2.1 2.1 0 01-2.04-1.612h4.08a2.1 2.1 0 01-2.04 1.612zm3.388-3.387a.807.807 0 01-.807.807h-5.161a.807.807 0 01-.807-.807v-.226h6.775v.226zm0-1.193h-6.775V22h6.775v.968zm0-1.936h-6.775v-.967h6.775v.967zm-5.484-6.451h-.807a.807.807 0 11.807-.807v.807zm.967 4.516v-3.549h2.259v3.549h-2.259zm4.776 0h-1.55v-3.549h.807c.978 0 1.774-.796 1.774-1.774S36.296 12 35.318 12c-.979 0-1.774.796-1.774 1.774v.807h-2.259v-.807c0-.978-.796-1.774-1.774-1.774s-1.774.796-1.774 1.774c0 .979.796 1.774 1.774 1.774h.807v3.549h-1.55a6.596 6.596 0 01-2.966-5.516c0-1.784.7-3.456 1.97-4.709a6.565 6.565 0 014.737-1.904c3.61.05 6.534 3.03 6.518 6.642a6.6 6.6 0 01-2.966 5.487zm-1.55-4.516v-.807a.807.807 0 011.613 0 .807.807 0 01-.806.807h-.807z" fill="url(#paint4_linear)"/></g></svg>