<svg width="46" height="46" fill="none" xmlns="http://www.w3.org/2000/svg"><defs><linearGradient id="paint0_linear" x1="23" y1="1" x2="23" y2="45" gradientUnits="userSpaceOnUse"><stop offset=".526" stop-color="#EDBBA7"/><stop offset="1" stop-color="#C4C4C4" stop-opacity="0"/></linearGradient><linearGradient id="paint1_linear" x1="23" y1="1" x2="23" y2="45" gradientUnits="userSpaceOnUse"><stop offset=".578" stop-color="#EDBBA7"/><stop offset="1" stop-color="#BEBEBE" stop-opacity="0"/></linearGradient></defs><circle cx="23" cy="23" r="22.5" fill="url(#paint0_linear)" stroke="url(#paint1_linear)"/><path d="M26.263 7c.199 1.19.613 3.679.73 4.372.907.261 1.782.624 2.612 1.084l3.608-2.577 3.908 3.908-2.577 3.608c.46.83.823 1.704 1.084 2.613l4.372.729v5.526c-1.19.199-3.679.613-4.372.73-.261.907-.624 1.782-1.084 2.612l2.577 3.608-3.908 3.908-3.608-2.577c-.83.46-1.704.823-2.613 1.084L26.263 40H23.5l-.97-16.5L23.5 7h2.763z" fill="#A7CAFC"/><path d="M20.008 35.628a12.516 12.516 0 01-2.613-1.084l-3.608 2.577-3.908-3.908 2.577-3.608c-.46-.83-.823-1.704-1.084-2.613L7 26.263v-5.526l4.372-.73c.261-.907.624-1.782 1.084-2.612l-2.577-3.608 3.908-3.908 3.608 2.577c.83-.46 1.704-.823 2.613-1.084L20.737 7H23.5v33h-2.763c-.199-1.19-.613-3.679-.73-4.372z" fill="#8493FB"/><path d="M31.75 23.5c0 4.549-3.7 8.25-8.25 8.25l-.97-8.25.97-8.25c4.549 0 8.25 3.7 8.25 8.25z" fill="#E2DFF4"/><path d="M15.25 23.5c0-4.549 3.7-8.25 8.25-8.25v16.5c-4.549 0-8.25-3.7-8.25-8.25z" fill="#BEBCDD"/><path d="M29.809 23.5c0 1.674-.66 3.258-1.831 4.44l-5.449-4.44.971-6.309a6.316 6.316 0 016.309 6.309z" fill="#F9F9F9"/><path d="M19.041 19.041a6.289 6.289 0 014.459-1.85V23.5l-4.478 4.44a6.298 6.298 0 01.02-8.899z" fill="#E2DFF4"/><path d="M27.978 27.94a6.29 6.29 0 01-4.478 1.869c0-.607-.647-2.427-.647-2.427s.647-2.019.647-2.426a4.86 4.86 0 014.478 2.983z" fill="#ECBD2C"/><path d="M23.5 24.956v4.853a6.289 6.289 0 01-4.478-1.87 4.86 4.86 0 014.478-2.983z" fill="#E58F22"/><path d="M26.897 23.5a3.401 3.401 0 01-3.397 3.397l-.97-3.397.97-3.397a3.401 3.401 0 013.397 3.397z" fill="#EDBBA7"/><path d="M20.103 23.5a3.401 3.401 0 013.397-3.397v6.794a3.401 3.401 0 01-3.397-3.397z" fill="#E8A38B"/></svg>