<svg width="46" height="46" fill="none" xmlns="http://www.w3.org/2000/svg"><defs><linearGradient id="paint0_linear" x1="23" y1="1" x2="23" y2="45" gradientUnits="userSpaceOnUse"><stop offset=".656" stop-color="#D1D1D1"/><stop offset="1" stop-color="#C4C4C4" stop-opacity="0"/></linearGradient><linearGradient id="paint1_linear" x1="23" y1="1" x2="23" y2="45" gradientUnits="userSpaceOnUse"><stop stop-color="#D7D7D7"/><stop offset="1" stop-color="#BEBEBE" stop-opacity="0"/></linearGradient></defs><circle cx="23" cy="23" r="22.5" fill="url(#paint0_linear)" stroke="url(#paint1_linear)"/><path d="M29.724 37.483H16.276a1.034 1.034 0 110-2.07h13.448a1.034 1.034 0 110 2.07z" fill="#E7ECED"/><path d="M25.586 31.276V30.24h-5.172v1.035c0 2.287-.816 4.138-3.104 4.138h11.38c-2.288 0-3.104-1.85-3.104-4.138z" fill="#AFB6BB"/><path d="M36.448 31.276H9.552A1.552 1.552 0 018 29.724V26.62h30v3.103c0 .857-.695 1.552-1.552 1.552z" fill="#E7ECED"/><path d="M24.552 29.724h-3.104a.517.517 0 010-1.034h3.104a.517.517 0 010 1.034z" fill="#AFB6BB"/><path d="M33.862 8.517H9.552C8.695 8.517 8 9.212 8 10.07v17.068h30V10.069c0-.857-.695-1.552-1.552-1.552h-2.586z" fill="#495D72"/><path d="M35.931 10.586H21.966v16.552H35.93V10.586z" fill="#28384C"/><path d="M23 10.586H10.069v16.552H23V10.586z" fill="#EBBA16"/><path d="M15.758 25.586a.517.517 0 01-.462-.748l1.551-3.104a.518.518 0 01.926.463l-1.552 3.104a.517.517 0 01-.463.285zM12.138 24.035a.516.516 0 01-.366-.883l1.552-1.552a.517.517 0 11.731.731l-1.551 1.552c-.101.1-.234.152-.366.152z" fill="#fff"/><path d="M13.69 25.586a.516.516 0 01-.366-.151l-1.552-1.552a.517.517 0 11.732-.731l1.551 1.551a.517.517 0 01-.365.883zM20.931 24.035a.516.516 0 01-.366-.152l-1.551-1.552a.517.517 0 11.731-.731l1.552 1.552a.517.517 0 01-.366.883z" fill="#fff"/><path d="M19.38 25.586a.516.516 0 01-.366-.883l1.551-1.551a.516.516 0 11.732.731l-1.552 1.552c-.1.1-.233.151-.366.151zM16.793 16.793a.517.517 0 01-.517-.517v-3.62a.517.517 0 011.034 0v3.62a.517.517 0 01-.517.517zM16.793 19.896a.517.517 0 01-.517-.517v-1.034a.518.518 0 011.034 0v1.034a.517.517 0 01-.517.517z" fill="#fff"/><path d="M30.241 13.172H25.07a.517.517 0 010-1.034h5.172a.517.517 0 010 1.034z" fill="#DD352E"/><path d="M33.862 13.172H32.31a.517.517 0 010-1.034h1.552a.517.517 0 010 1.034z" fill="#366DB6"/><path d="M33.862 15.241H28.69a.517.517 0 010-1.034h5.172a.517.517 0 010 1.034z" fill="#75348B"/><path d="M26.62 15.241H25.07a.517.517 0 010-1.034h1.552a.517.517 0 010 1.034z" fill="#57ABC1"/><path d="M30.241 17.31H25.07a.517.517 0 010-1.034h5.172a.517.517 0 010 1.034z" fill="#25AE88"/><path d="M33.862 17.31H32.31a.518.518 0 010-1.034h1.552a.517.517 0 010 1.034z" fill="#F76363"/><path d="M33.862 19.38H28.69a.517.517 0 010-1.035h5.172a.517.517 0 010 1.034z" fill="#BF5A45"/><path d="M26.62 19.38H25.07a.517.517 0 010-1.035h1.552a.517.517 0 010 1.034z" fill="#F2ECBF"/><path d="M33.862 25.586H28.69a.517.517 0 010-1.034h5.172a.517.517 0 010 1.034z" fill="#25AE88"/><path d="M26.62 25.586H25.07a.517.517 0 010-1.034h1.552a.517.517 0 010 1.034z" fill="#DD352E"/><path d="M30.241 21.448H25.07a.517.517 0 010-1.034h5.172a.517.517 0 010 1.034z" fill="#75348B"/><path d="M33.862 21.448H32.31a.518.518 0 010-1.034h1.552a.517.517 0 010 1.034z" fill="#EBBA16"/><path d="M33.862 23.517H28.69a.517.517 0 010-1.034h5.172a.517.517 0 010 1.034z" fill="#ED8A19"/><path d="M26.62 23.517H25.07a.517.517 0 010-1.034h1.552a.517.517 0 010 1.034z" fill="#C5411E"/></svg>