<svg width="46" height="46" fill="none" xmlns="http://www.w3.org/2000/svg"><defs><linearGradient id="paint0_linear" x1="23" y1="1" x2="23" y2="45" gradientUnits="userSpaceOnUse"><stop offset=".406" stop-color="#57C3C1"/><stop offset="1" stop-color="#57C3C1" stop-opacity="0"/></linearGradient><linearGradient id="paint1_linear" x1="23" y1="1" x2="23" y2="45" gradientUnits="userSpaceOnUse"><stop offset=".51" stop-color="#57C3C1"/><stop offset="1" stop-color="#BEBEBE" stop-opacity="0"/></linearGradient></defs><circle cx="23" cy="23" r="22.5" fill="url(#paint0_linear)" stroke="url(#paint1_linear)"/><path d="M32.797 7.828H17.484a1.64 1.64 0 00-1.64 1.64v22.423c0 .906.734 1.64 1.64 1.64h15.313a1.64 1.64 0 001.64-1.64V9.469a1.64 1.64 0 00-1.64-1.64z" fill="#0093B9"/><path d="M18.031 10.016H32.25v21.328H18.031V10.016z" fill="#E3E4E2"/><path d="M28.969 10.016h-7.657V7.828H23.5l-.547-2.187h4.375l-.547 2.187h2.188v2.188z" fill="#57C3C1"/><path d="M27.875 37.36H8.187v-17.5h9.844v8.75h9.844v8.75z" fill="#F8BC1E"/><path d="M21.313 28.61h3.28v3.28h-3.28v-3.28z" fill="#F9DA62"/><path d="M27.875 29.156h-.82a.82.82 0 00-.82.82v1.389a4.354 4.354 0 01-4.355 4.354h-2.482a.82.82 0 00-.82.82v.82h9.297v-8.203z" fill="#F5A922"/><path d="M11.469 28.61h3.281v3.28h-3.281v-3.28z" fill="#F9DA62"/><path d="M18.031 29.156h-.82a.82.82 0 00-.82.82v1.389a4.354 4.354 0 01-4.354 4.354H9.555a.82.82 0 00-.82.82v.82h9.296v-8.203z" fill="#F5A922"/><path d="M11.469 19.86h3.281v3.28h-3.281v-3.28z" fill="#F9DA62"/><path d="M18.031 20.406h-.82a.82.82 0 00-.82.82v1.389a4.354 4.354 0 01-4.354 4.354H9.555a.82.82 0 00-.82.82v.82h9.296v-8.203z" fill="#F5A922"/><path d="M37.845 21.907l-14.67 4.389-2.41-.421 1.783-1.675 14.67-4.389a1.094 1.094 0 11.627 2.096z" fill="#F8BC1E"/><path d="M39.103 20.389a1.64 1.64 0 00-2.042-1.102l-14.67 4.39a.547.547 0 00-.218.125l-1.782 1.674a.546.546 0 00.28.938l2.41.42c.083.015.17.01.25-.014l11.904-3.562.051 1.126-3.782 1.132.313 1.048 4.192-1.254a.548.548 0 00.39-.549l-.084-1.825 1.687-.505a1.64 1.64 0 001.101-2.042zm-15.961 5.346l-1.205-.21.891-.838 2.496-.747.314 1.048-2.496.747zm3.544-1.06l-.314-1.048 8.76-2.621.051 1.126-8.497 2.543zm11.327-3.557a.545.545 0 01-.325.265l-1.425.426-.051-1.126 1.163-.348a.547.547 0 01.638.783z" fill="#000"/><path d="M27.875 28.063h-9.297v-8.204a.547.547 0 00-.547-.547H8.188a.547.547 0 00-.547.547v17.5a.547.547 0 00.546.547h19.688a.547.547 0 00.547-.547v-8.75a.547.547 0 00-.547-.547zm-6.016 1.093h2.188v2.188h-2.188v-2.188zm-9.843-8.75h2.187v2.188h-2.187v-2.188zm-3.282 0h2.188v2.735a.547.547 0 00.547.547h3.281a.547.547 0 00.547-.547v-2.735h2.187v7.657h-8.75v-7.657zm3.282 8.75h2.187v2.188h-2.187v-2.188zm-3.282 0h2.188v2.735a.547.547 0 00.547.547h3.281a.547.547 0 00.547-.547v-2.735h2.187v7.657h-8.75v-7.657zm18.594 7.657h-8.75v-7.657h2.188v2.735a.547.547 0 00.547.547h3.28a.546.546 0 00.548-.547v-2.735h2.187v7.657z" fill="#000"/><path d="M25.14 34.625h1.094v1.094h-1.093v-1.094zM15.297 34.625h1.094v1.094h-1.094v-1.094zM15.297 25.875h1.094v1.094h-1.094v-1.094zM16.39 9.469a1.095 1.095 0 011.094-1.094h3.282v1.094H18.03a.547.547 0 00-.547.547v8.203h1.094v-7.657h13.125v8.75h1.094v-9.296a.547.547 0 00-.547-.547h-2.734V8.375h3.28a1.095 1.095 0 011.095 1.094v9.297h1.093V9.469a2.19 2.19 0 00-2.187-2.188h-5.315l.377-1.508a.548.548 0 00-.53-.68h-4.376a.547.547 0 00-.53.68l.377 1.508h-5.316a2.19 2.19 0 00-2.187 2.188v8.75h1.094v-8.75zm5.47-1.094h1.64a.547.547 0 00.53-.68l-.377-1.508h2.975l-.377 1.509a.547.547 0 00.53.679h1.64v1.094H21.86V8.375zM33.89 31.89a1.095 1.095 0 01-1.093 1.094h-3.281v1.094h3.28a2.19 2.19 0 002.188-2.187v-4.922h-1.093v4.922z" fill="#000"/><path d="M32.797 31.344v-3.828h-1.094v3.28h-2.187v1.095h2.734a.547.547 0 00.547-.547zM22.953 12.203a.547.547 0 00-.547-.547H20.22a.547.547 0 00-.547.547v2.188a.547.547 0 00.547.546h2.187a.547.547 0 00.547-.546v-2.188zm-1.094 1.64h-1.093V12.75h1.093v1.094zM22.406 16.578H20.22a.547.547 0 00-.547.547v2.188a.547.547 0 00.547.546h2.187a.547.547 0 00.547-.547v-2.187a.547.547 0 00-.547-.547zm-.547 2.188h-1.093v-1.094h1.093v1.094zM24.047 11.656h1.094v1.094h-1.094v-1.094zM24.047 13.844h6.562v1.094h-6.562v-1.094zM26.234 11.656h4.375v1.094h-4.375v-1.094zM24.047 16.578h1.094v1.094h-1.094v-1.094zM24.047 18.766h6.562v1.093h-6.562v-1.093zM26.234 16.578h4.375v1.094h-4.375v-1.094z" fill="#000"/></svg>