<svg width="51" height="51" fill="none" xmlns="http://www.w3.org/2000/svg"><defs><linearGradient id="paint0_linear" x1="26" y1="5" x2="26" y2="45" gradientUnits="userSpaceOnUse"><stop offset=".328" stop-color="#BEB3FF"/><stop offset="1" stop-color="#C4C4C4" stop-opacity="0"/></linearGradient><linearGradient id="paint1_linear" x1="26" y1="5" x2="26" y2="45" gradientUnits="userSpaceOnUse"><stop stop-color="#BEB3FF"/><stop offset="1" stop-color="#BEBEBE" stop-opacity="0"/></linearGradient><linearGradient id="paint2_linear" x1="26.641" y1="13.387" x2="26.641" y2="31.569" gradientUnits="userSpaceOnUse"><stop offset="0" stop-color="#A8ABFF"/><stop offset="1" stop-color="#FAC8FF"/></linearGradient><linearGradient id="paint3_linear" x1="34.559" y1="9.985" x2="34.559" y2="21.892" gradientUnits="userSpaceOnUse"><stop offset="0" stop-color="#96D1F3"/><stop offset="1" stop-color="#CCFFF4"/></linearGradient><linearGradient id="paint4_linear" x1="26.453" y1="9.545" x2="26.453" y2="39.545" gradientUnits="userSpaceOnUse"><stop offset="0" stop-color="#174FA3"/><stop offset="1" stop-color="#B044AF"/></linearGradient><clipPath id="clip0"><path fill="#fff" transform="translate(11.454 9.545)" d="M0 0h30v30H0z"/></clipPath></defs><rect width="51" height="51" rx="15" fill="#6360FF"/><circle cx="26" cy="25" r="20.5" fill="url(#paint0_linear)" stroke="url(#paint1_linear)"/><g clip-path="url(#clip0)"><path d="M19.72 39.545v-4.047h-.822a3.519 3.519 0 01-3.506-3.211l-.356-4.061-2.222-.5a1.173 1.173 0 01-.805-1.642l2.675-5.723c0-5.73 4.922-10.376 10.993-10.376 6.072 0 10.994 4.646 10.994 10.377v1.87c0 3.183-1.099 6.28-3.13 8.82L30.747 34.5v5.045H19.72z" fill="#fff"/><path d="M35.732 23.677v-2.398l-2.006-.713-.723-1.745.914-1.924-1.695-1.695-1.923.914-1.745-.722-.714-2.007h-2.397l-.714 2.007-1.745.722-1.923-.914-1.695 1.695.914 1.924-.723 1.745-2.006.713v2.398l2.006.713.723 1.745-.914 1.924 1.695 1.695 1.923-.914 1.745.722.714 2.007h2.397l.714-2.007 1.745-.722 1.923.914 1.695-1.695-.914-1.924.723-1.745 2.006-.713zm-9.09 3.2a4.399 4.399 0 110-8.798 4.399 4.399 0 010 8.798z" fill="url(#paint2_linear)"/><path d="M36.905 27.229a2.346 2.346 0 11-4.692 0h4.692zM31.04 26.056c0 .648.525 1.173 1.173 1.173h4.692c.648 0 1.173-.525 1.173-1.173V21.89H31.04v4.165z" fill="#fff"/><path d="M34.56 9.985a6.452 6.452 0 00-3.52 11.86v.047h7.038v-.047a6.452 6.452 0 00-3.519-11.86z" fill="url(#paint3_linear)"/><path d="M34.656 9.546a6.837 6.837 0 00-3.886 1.131 12.006 12.006 0 00-5.094-1.131c-6.27 0-11.376 4.798-11.432 10.717l-2.635 5.635c-.207.445-.202.953.014 1.394.216.44.615.755 1.093.862l1.909.43.328 3.741a3.95 3.95 0 001.269 2.574 3.95 3.95 0 002.674 1.04h.383v3.606h.88v-3.607h5.19v-.88h-6.453a3.063 3.063 0 01-3.067-2.81l-.384-4.38-2.535-.572a.73.73 0 01-.503-1.026l2.716-5.81v-.099c0-5.478 4.734-9.936 10.553-9.936 1.484 0 2.957.297 4.302.862a6.9 6.9 0 00-1.644 2.18l-.185-.52h-3.018l-.752 2.115-.358.148-1.026.425-2.027-.963-2.134 2.134.963 2.027-.573 1.384-2.115.752v3.018l2.115.752.573 1.384-.963 2.027 2.134 2.134 2.027-.963 1.384.573.752 2.115h3.018l.752-2.115 1.384-.573 2.027.963.724-.723c.242.158.51.28.796.357-.2.294-.413.581-.634.858l-2.892 3.568v5.202h.88v-4.89l2.697-3.328c.34-.425.658-.87.948-1.327a2.79 2.79 0 002.486-2.386c.69-.183 1.2-.812 1.2-1.56v-3.977a6.876 6.876 0 002.932-5.61c.017-3.764-3.03-6.87-6.793-6.922zm-4.057 12.532v.4a3.963 3.963 0 01-3.959 3.959 3.963 3.963 0 01-3.959-3.959 3.963 3.963 0 015.398-3.689 6.878 6.878 0 002.52 3.29zm1.53 7.145l-1.82-.864-2.106.872-.675 1.898h-1.776l-.675-1.898-2.107-.872-1.82.864-1.255-1.256.864-1.82-.872-2.106-1.898-.675V21.59l1.898-.675.872-2.107-.864-1.82 1.256-1.255 1.82.864.18-.074 1.207-.5.719-.298.675-1.898h1.776l.338.951a6.943 6.943 0 00-.068 3.002 4.844 4.844 0 00-5.997 4.698 4.844 4.844 0 004.839 4.839 4.836 4.836 0 003.959-2.062v.8c0 .747.51 1.377 1.2 1.56.071.507.279.971.585 1.353l-.255.255zm2.429-.088a1.91 1.91 0 01-1.855-1.466h3.71c-.2.84-.955 1.466-1.855 1.466zm3.08-3.08a.734.734 0 01-.734.734h-4.692a.734.734 0 01-.733-.733v-.206h6.158v.206zm0-1.084h-6.16v-.88h6.16v.88zm0-1.76h-6.16v-.88h6.16v.88zm-4.986-5.865h-.733a.734.734 0 11.733-.733v.733zm.88 4.106v-3.226h2.052v3.226h-2.053zm4.341 0h-1.409v-3.226h.733c.89 0 1.613-.724 1.613-1.613 0-.89-.724-1.613-1.613-1.613-.89 0-1.613.724-1.613 1.613v.733h-2.053v-.733c0-.89-.723-1.613-1.612-1.613-.89 0-1.613.724-1.613 1.613 0 .89.723 1.613 1.613 1.613h.733v3.226h-1.41a5.997 5.997 0 01-2.696-5.015c0-1.622.636-3.142 1.79-4.28a5.969 5.969 0 014.308-1.731c3.282.046 5.94 2.754 5.926 6.038a6 6 0 01-2.697 4.988zm-1.409-4.106v-.733a.734.734 0 11.733.733h-.733z" fill="url(#paint4_linear)"/></g></svg>